<svg viewBox="0 0 110.5896 104.3211009174312" version="1.1" id="LogoDE" xmlns:xlink="http://www.w3.org/1999/xlink" xmlns="http://www.w3.org/2000/svg" style="max-height: 500px" width="110.5896" height="104.3211009174312">
  
  <defs>
    <style>
      .st0 {
        fill: url(#Unbenannter_Verlauf_3);
      }

      .st1 {
        fill: #e20e17;
      }

      .st2 {
        fill: none;
      }

      .st3 {
        fill: #ffdc0a;
      }

      .st4 {
        clip-path: url(#clippath-1);
      }

      .st5 {
        fill: #d1d706;
      }

      .st6 {
        fill: url(#Unbenannter_Verlauf_4);
      }

      .st7 {
        clip-path: url(#clippath-2);
      }

      .st8 {
        fill: #59595a;
      }

      .st9 {
        fill: #bc1f1f;
      }

      .st10 {
        clip-path: url(#clippath);
      }

      .st11 {
        fill: url(#Unbenannter_Verlauf_2);
      }
    </style><style class="darkreader darkreader--sync" media="screen"/>
    <clipPath id="clippath">
      <path d="M14.2,47.7c3.9,6.4,9,11.5,15,15.1,3.4-.6,6.6-1.4,9.6-2.3-.1-.2-.3-.4-.5-.6-7.3-10.5-7.9-28.4-1.7-47.3L10.8,7.2c-5.5,12.3-4.2,27.9,3.4,40.6" class="st2"/>
    </clipPath>
    <linearGradient gradientUnits="userSpaceOnUse" gradientTransform="translate(18579.1 -9326.8) rotate(-90) scale(47.4 -47.4)" y2="391.8" x2="-197.2" y1="391.8" x1="-198.2" data-name="Unbenannter Verlauf 4" id="Unbenannter_Verlauf_4">
      <stop stop-color="#ffdc0a" offset="0" data-darkreader-inline-stopcolor="" style="--darkreader-inline-stopcolor: var(--darkreader-background-ffdc0a, #957f00);"/>
      <stop stop-color="#f8af07" offset="1" data-darkreader-inline-stopcolor="" style="--darkreader-inline-stopcolor: var(--darkreader-background-f8af07, #956904);"/>
    </linearGradient>
    <clipPath id="clippath-1">
      <path d="M63.9,7.1c-7.5.1-14.5,2-20.6,5.4-1.1,3.2-2.1,6.4-2.8,9.5.2,0,.5,0,.7-.1,12.8-1.1,28.6,7.4,41.8,22.2l17.7-19.6c-7.7-10.7-21.5-17.4-36-17.4s-.6,0-.9,0" class="st2"/>
    </clipPath>
    <linearGradient gradientUnits="userSpaceOnUse" gradientTransform="translate(-18468.7 9404.9) rotate(90) scale(47.4 -47.4)" y2="391.4" x2="-197.6" y1="391.4" x1="-198.6" data-name="Unbenannter Verlauf 2" id="Unbenannter_Verlauf_2">
      <stop stop-color="#e20e17" offset="0" data-darkreader-inline-stopcolor="" style="--darkreader-inline-stopcolor: var(--darkreader-background-e20e17, #b50b12);"/>
      <stop stop-color="#bc1f1f" offset="1" data-darkreader-inline-stopcolor="" style="--darkreader-inline-stopcolor: var(--darkreader-background-bc1f1f, #961919);"/>
    </linearGradient>
    <clipPath id="clippath-2">
      <path d="M72.8,43.4c-5.4,11.6-20.6,21.1-40.1,25.1l8.2,25.1c13.4-1.4,26.3-10.3,33.4-23.2,3.6-6.6,5.5-13.6,5.6-20.5-2.2-2.6-4.5-5-6.8-7.2,0,.2-.2.5-.3.7" class="st2"/>
    </clipPath>
    <linearGradient gradientUnits="userSpaceOnUse" gradientTransform="translate(-9303 -18462.8) rotate(-180) scale(47.4 -47.4)" y2="391.3" x2="-197.2" y1="391.3" x1="-198.2" data-name="Unbenannter Verlauf 3" id="Unbenannter_Verlauf_3">
      <stop stop-color="#d1d706" offset="0" data-darkreader-inline-stopcolor="" style="--darkreader-inline-stopcolor: var(--darkreader-background-d1d706, #a7ac05);"/>
      <stop stop-color="#94c11f" offset="1" data-darkreader-inline-stopcolor="" style="--darkreader-inline-stopcolor: var(--darkreader-background-94c11f, #769a19);"/>
    </linearGradient>
  </defs>
  <rect height="5.3" width="298.7" y="91.2" x="120.2" class="st9"/>
  <polygon points="204.3 58.2 204.3 76.5 195 76.5 195 58.2 176.5 33 187.1 33 199.7 50.3 212.2 33 222.8 33 204.3 58.2" class="st1"/>
  <path d="M168.9,76.5v-28.4c0-2.4-.4-4.4-1.7-5.7-1.2-1.4-4.6-1.7-6.9-1.7s-6.3.6-6.3.6v35.1h-9.3v-29.2c0-2.4-.5-4.5-2.1-5.7-1.2-.8-4.5-.9-6.8-.9s-6.3.6-6.3.6v35.1h-9.3v-42.6c2.5-.5,9.6-1.5,18.6-1.5s7,.6,9.6,1.7l.4.2h.5c4.5-1.3,8.8-1.8,12-1.8,11.6,0,16.9,4.9,16.9,14.5v29.5h-9.3Z" class="st1"/>
  <path d="M261.5,63c0,9.6-6.4,14.4-19.3,14.4s-17.9-1.7-17.9-1.7v-10.3s13.3,1.3,17,1.3c5.3,0,7.9-1,7.9-2.9s-2.2-2.1-6.6-3.4c-2.9-.8-5.8-1.6-8.7-2.3-3.6-1.1-6.2-2.4-7.8-3.8-2.2-2-3.4-4.7-3.4-8.2,0-9.2,6.4-13.8,19.2-13.8s16.7,1.7,16.7,1.7v9.8s-12.2-.9-16-.9-7.7.8-7.7,2.5,2.3,2.3,6.9,3.3c6.1,1.4,10.4,2.7,12.8,3.9,4.6,2.5,6.9,5.9,6.9,10.4" class="st9"/>
  <path d="M296.5,54.2c0-4.2-.6-7.1-1.9-8.6-1.4-1.6-4.2-2.4-8.3-2.4s-6.7.8-8.2,2.4c-1.4,1.6-2.1,4.5-2.1,8.6s.6,7.5,1.8,9.1c1.4,2,4.2,3,8.5,3s7.2-1,8.6-2.9c1.1-1.6,1.7-4.6,1.7-9.2M308.8,54.2c0,7.9-1.8,13.7-5.5,17.5-3.6,3.8-9.4,5.7-17.2,5.7s-13.5-1.9-17.2-5.7c-3.6-3.8-5.5-9.6-5.5-17.5,0-14.6,7.5-21.9,22.6-21.9s22.6,7.3,22.6,21.9" class="st9"/>
  <path d="M418.9,42.9s-9.4-.2-11.8,0c-3.4.2-5.1,1.6-5.1,4.3v29.6h-12.1v-28.2c0-10.9,5.9-16.4,17.6-16.4s11.4.3,11.4.3v10.4Z" class="st9"/>
  <path d="M342.8,66.2s-10.5,0-13.2-.2c-3.4-.2-5.2-1.5-5.2-4.2v-29h-12.1v27.7c0,10.9,5.9,16.4,17.6,16.4s12.9-.3,12.9-.3v-10.3Z" class="st9"/>
  <path d="M373.4,57.7v8.7s-4.3.5-7.4.5c-5.8,0-8.7-1.2-8.7-3.6s1.5-2.8,3.1-3.3c4.6-1.5,13.1-2.2,13.1-2.2M385.4,75.9v-27c0-11.1-6.5-16.6-19.4-16.6s-18.6,1.7-18.6,1.7v10.1s14.4-1.1,18.2-1.1,4,.2,5.1.5c1.8.6,2.7,1.8,2.7,3.6v1s-7.9.5-15.9,2.5c-8.3,2.1-12.4,6.3-12.4,12.8,0,9.4,6.8,14.1,20.4,14.1s20.1-1.5,20.1-1.5" class="st9"/>
  <path d="M108.6,25.1l-1.3-2C98.5,9,81.8.5,63.7.8c-8.6.2-16.5,2.3-23.5,6.2l4.7,1-1.3,3.4c-2.2,5.8-3.6,11.6-4.4,17,0,0,0,0,0,.1.8-.2,1.6-.3,2.5-.4,11.5-1,26.4,7.7,38.8,22.7l2.3,2.8,25.7-28.6Z" class="st1"/>
  <path d="M43.4,56.4c-6.6-9.5-6.5-26.7.2-45l1.3-3.4L7.3,0l-1.1,2.1C-1.5,16.8-.6,35.5,8.8,51c4.4,7.4,10.3,13.2,17.1,17.3,0,0,0,0,0,0l-1.5-4.6,3.6-.6c5.9-1,11.4-2.5,16.4-4.5.3-.1.5-.2.6-.3-.6-.6-1.1-1.3-1.6-2" class="st3"/>
  <path d="M28,63.1l-3.6.6,11.9,36.6h2.4c16.6-.7,32.3-10.9,41.1-26.7,4.2-7.5,6.3-15.5,6.4-23.5h0s-3.2,3.6-3.2,3.6l-2.3-2.8c-4-4.8-8.3-9-12.6-12.4-.2.8-.6,1.5-.9,2.3-4.9,10.5-19.9,19-39.1,22.3" class="st5"/>
  <g class="st10">
    <rect transform="translate(-6.3 4.8) rotate(-11)" height="61.1" width="43.5" y="4.5" x=".3" class="st6"/>
  </g>
  <g class="st4">
    <rect transform="translate(23.4 84) rotate(-71)" height="69" width="54.6" y="-8.9" x="43.3" class="st11"/>
  </g>
  <g class="st7">
    <rect transform="translate(-31 53.6) rotate(-41)" height="69.4" width="69.1" y="33.5" x="21.7" class="st0"/>
  </g>
  <g>
    <g>
      <polygon points="168.1 126.1 168.1 136.5 162.8 136.5 162.8 126.1 152.2 111.7 158.3 111.7 165.4 121.5 172.6 111.7 178.7 111.7 168.1 126.1" class="st8"/>
      <path d="M147.8,136.5v-16.2c0-1.3-.2-2.5-1-3.3-.7-.8-2.6-1-4-1s-3.6.4-3.6.4v20.1h-5.3v-16.7c0-1.3-.3-2.6-1.2-3.2-.7-.5-2.6-.5-3.9-.5s-3.6.4-3.6.4v20.1h-5.3v-24.4c1.4-.3,5.5-.8,10.6-.8s4,.3,5.5.9h.3c0,.1.3,0,.3,0,2.6-.7,5.1-1,6.9-1,6.6,0,9.7,2.8,9.7,8.3v16.9h-5.3Z" class="st8"/>
      <path d="M200.8,128.8c0,5.5-3.7,8.2-11.1,8.2s-10.2-1-10.2-1v-5.9s7.6.7,9.7.7c3,0,4.5-.6,4.5-1.7s-1.3-1.2-3.8-1.9c-1.7-.5-3.3-.9-5-1.3-2.1-.6-3.6-1.4-4.5-2.2-1.3-1.1-1.9-2.7-1.9-4.7,0-5.3,3.7-7.9,11-7.9s9.5.9,9.5.9v5.6s-7-.5-9.2-.5-4.4.5-4.4,1.4,1.3,1.3,3.9,1.9c3.5.8,5.9,1.5,7.3,2.2,2.6,1.4,3.9,3.4,3.9,6" class="st8"/>
      <path d="M220.8,123.7c0-2.4-.4-4.1-1.1-4.9-.8-.9-2.4-1.4-4.8-1.4s-3.9.5-4.7,1.4c-.8.9-1.2,2.6-1.2,4.9s.3,4.3,1,5.2c.8,1.1,2.4,1.7,4.9,1.7s4.1-.6,4.9-1.7c.6-.9,1-2.6,1-5.3M227.9,123.7c0,4.5-1,7.8-3.1,10-2.1,2.2-5.4,3.3-9.8,3.3s-7.7-1.1-9.8-3.3c-2.1-2.2-3.1-5.5-3.1-10,0-8.3,4.3-12.5,12.9-12.5s12.9,4.2,12.9,12.5" class="st8"/>
      <path d="M290.9,117.3s-5.4,0-6.8,0c-1.9.1-2.9.9-2.9,2.5v16.9h-6.9v-16.2c0-6.2,3.3-9.4,10-9.4s6.5.2,6.5.2v5.9Z" class="st8"/>
      <path d="M247.3,130.6s-6,0-7.5-.1c-2-.1-2.9-.8-2.9-2.4v-16.6h-6.9v15.8c0,6.2,3.3,9.4,10,9.4s7.4-.2,7.4-.2v-5.9Z" class="st8"/>
      <path d="M264.8,125.8v5s-2.5.3-4.2.3c-3.3,0-5-.7-5-2.1s.8-1.6,1.7-1.9c2.6-.9,7.5-1.3,7.5-1.3M271.7,136.2v-15.4c0-6.3-3.7-9.5-11.1-9.5s-10.7.9-10.7.9v5.8s8.2-.6,10.4-.6,2.3,0,2.9.3c1,.3,1.6,1,1.6,2.1v.6s-4.5.3-9.1,1.4c-4.7,1.2-7.1,3.6-7.1,7.3,0,5.4,3.9,8.1,11.7,8.1s11.5-.8,11.5-.8" class="st8"/>
    </g>
    <path d="M353.1,111.5h7.3l-8.5,25.3h-9.2l-8.5-25.3h7.3l5.8,18M346.2,128.3" class="st8"/>
    <rect height="5.3" width="13.6" y="122.6" x="290.8" class="st8"/>
    <path d="M316.4,128.8v-.6s4.6-.3,9.3-1.4c4.8-1.2,7.2-3.7,7.2-7.4,0-5.5-4-8.2-11.9-8.2s-11.7.9-11.7.9v24.7h7v-.5M324,121.3c-2.7.9-7.6,1.3-7.6,1.3v-5s2.5-.3,4.3-.3c3.4,0,5.1.7,5.1,2.1s-.8,1.6-1.8,1.9Z" class="st8"/>
    <rect height="5.7" width="5.7" y="131.1" x="360.1" class="st8"/>
    <g>
      <path d="M381,111.1" class="st8"/>
      <path d="M381,136.6c4.4,0,7.6-1.1,9.7-3.2,2.1-2.1,3.1-5.4,3.1-9.9,0-8.2-4.3-12.4-12.8-12.4h-10v25.5M385.8,128.7c-.8,1.1-2.4,1.6-4.8,1.6s-2.4-.2-3.3-.5v-12c.8-.3,1.9-.5,3.3-.5,2.3,0,3.9.5,4.7,1.4.7.8,1.1,2.5,1.1,4.9s-.3,4.3-1,5.2Z" class="st8"/>
    </g>
    <path d="M405.1,116.5c.5-.5,1.4-.7,2.3-.7h11.5v-5h-16.8c-2.3,0-3.7,1.1-4,3.4h0c0,.5-.1.9-.1,1.5v21.1h20.9s0-5,0-5h-14.3s-.3-1.7-.3-2.6,0-2.3.4-2.8c0,0,.1-.1.2-.2h14v-5h-14.4c0-.6-.2-1.5-.2-2,0-1,.1-2.3.7-2.8Z" class="st8"/>
  </g>
</svg>